<?xml version="1.0" standalone="no"?>
<!DOCTYPE svg PUBLIC "-//W3C//DTD SVG 20010904//EN"
 "http://www.w3.org/TR/2001/REC-SVG-20010904/DTD/svg10.dtd">
<svg version="1.0" xmlns="http://www.w3.org/2000/svg"
 width="512.000000pt" height="512.000000pt" viewBox="0 0 512.000000 512.000000"
 preserveAspectRatio="xMidYMid meet">

<g transform="translate(0.000000,512.000000) scale(0.100000,-0.100000)"
fill="#B01E1E" stroke="none">
<path d="M2405 4590 c-22 -5 -76 -13 -120 -19 -96 -13 -214 -38 -235 -50 -9
-5 -30 -12 -49 -16 -18 -4 -44 -13 -59 -21 -15 -8 -33 -14 -40 -14 -27 0 -281
-130 -368 -189 -105 -71 -319 -283 -379 -377 -38 -59 -135 -251 -135 -267 0
-5 -6 -23 -14 -40 -18 -41 -55 -167 -67 -227 -4 -25 -13 -70 -20 -100 -7 -34
-12 -149 -12 -295 l1 -240 88 -176 c100 -198 101 -199 144 -329 32 -93 48
-151 74 -260 8 -30 20 -76 27 -102 l13 -48 123 0 123 0 0 40 c0 48 4 49 139
53 l94 2 -266 199 c-294 220 -283 207 -255 299 11 38 11 41 -17 62 -26 21 -29
31 -36 112 -4 48 -8 192 -8 319 -1 267 2 279 62 251 19 -9 39 -17 44 -17 4 0
42 -14 83 -31 245 -100 525 -163 885 -199 109 -11 580 -11 685 1 210 22 409
55 535 89 44 12 105 28 135 35 30 8 64 19 75 24 11 5 43 17 70 26 28 10 64 23
80 30 109 47 130 55 146 55 11 0 19 -6 19 -12 1 -7 5 -74 10 -148 9 -122 -1
-428 -16 -498 -2 -13 -16 -27 -30 -33 -23 -8 -26 -13 -20 -47 3 -20 8 -55 12
-77 l6 -40 -268 -200 -267 -200 74 -3 c111 -3 117 -6 121 -50 l3 -37 141 -3
141 -3 17 59 c9 32 16 65 16 74 0 17 12 59 67 238 48 153 54 168 152 360 l84
165 5 230 c8 439 -46 668 -219 930 -54 81 -263 301 -330 346 -164 110 -213
141 -274 172 -77 39 -160 77 -170 77 -4 0 -21 6 -38 14 -77 34 -265 80 -392
97 -115 15 -338 20 -390 9z"/>
<path d="M870 3543 c-139 -63 -240 -120 -240 -135 0 -5 13 -8 28 -8 37 0 120
-28 154 -52 35 -24 45 -18 51 29 2 21 14 69 25 108 11 38 20 71 19 72 -2 1
-18 -5 -37 -14z"/>
<path d="M4240 3532 c0 -9 5 -33 11 -52 5 -19 14 -61 19 -94 5 -32 11 -60 13
-62 2 -2 27 7 55 21 28 13 81 29 119 35 37 6 69 13 71 14 5 6 -90 63 -168 101
-41 20 -83 41 -92 46 -24 13 -28 12 -28 -9z"/>
<path d="M435 3257 c-77 -79 -141 -164 -131 -174 3 -3 13 0 22 8 22 18 273 20
295 3 8 -6 27 -14 44 -18 16 -4 56 -25 89 -47 32 -22 61 -37 64 -35 2 3 7 57
10 121 5 112 4 117 -19 141 -42 45 -105 66 -208 72 l-93 5 -73 -76z"/>
<path d="M4480 3313 c-48 -9 -110 -33 -148 -57 l-38 -24 4 -123 c2 -68 6 -126
8 -128 2 -2 20 10 41 27 21 16 58 40 83 52 25 12 53 26 62 31 35 18 163 31
240 24 43 -3 78 -3 78 2 0 12 -137 171 -157 182 -22 11 -139 21 -173 14z"/>
<path d="M3850 3051 l-45 -17 -2 -263 c-2 -243 0 -262 15 -256 9 4 27 10 39
12 12 3 28 11 34 19 14 17 26 508 13 516 -5 3 -29 -2 -54 -11z"/>
<path d="M1222 2810 c3 -161 9 -255 16 -262 6 -6 28 -19 50 -28 l40 -18 -1
264 -1 263 -38 16 c-75 30 -71 44 -66 -235z"/>
<path d="M4610 3044 c-103 -20 -204 -71 -269 -138 l-44 -45 6 -61 c3 -33 10
-66 16 -73 5 -7 13 -32 17 -55 8 -50 16 -51 86 -14 134 72 317 78 442 15 28
-14 77 -52 108 -85 32 -32 58 -53 58 -47 0 59 -72 298 -118 389 -36 73 -39 76
-90 92 -56 18 -170 30 -212 22z"/>
<path d="M370 3023 c-98 -21 -133 -39 -152 -81 -30 -66 -46 -106 -53 -132 -3
-14 -10 -34 -15 -45 -12 -29 -50 -206 -50 -233 0 -21 5 -18 48 25 118 121 224
173 353 173 81 0 169 -27 241 -75 21 -14 39 -25 42 -25 2 0 6 19 10 42 4 23
12 48 18 55 5 7 12 41 15 75 l5 63 -49 48 c-58 59 -118 91 -207 111 -79 19
-118 18 -206 -1z"/>
<path d="M1398 2913 c-3 -107 0 -250 8 -360 l6 -82 31 -7 c18 -3 37 -10 42
-14 13 -11 178 -53 350 -91 257 -56 709 -83 1005 -59 129 10 362 38 381 45 8
3 48 11 89 19 121 23 264 61 355 94 48 17 50 20 57 62 9 62 10 480 0 480 -4 0
-42 -11 -85 -25 -42 -13 -92 -27 -112 -31 l-34 -6 15 -37 c10 -22 18 -79 21
-146 5 -95 3 -112 -11 -124 -14 -12 -19 -11 -36 4 -15 13 -20 31 -20 68 0 39
-26 204 -34 214 -1 1 -19 -3 -41 -8 -84 -22 -195 -40 -335 -56 -80 -8 -146
-16 -147 -17 -1 0 3 -26 9 -56 32 -176 -69 -349 -242 -413 -50 -19 -195 -24
-205 -7 -3 6 -13 10 -22 10 -30 0 -102 43 -141 84 -73 75 -112 168 -112 268 0
31 5 60 10 63 6 3 10 16 10 29 0 22 -6 23 -137 39 -137 16 -228 32 -353 61
-132 30 -196 47 -215 56 -11 5 -31 12 -45 15 -14 4 -33 9 -42 11 -16 5 -18 -4
-20 -83z"/>
<path d="M2264 2778 c13 -99 68 -175 161 -222 52 -26 63 -28 143 -24 79 4 92
7 143 40 31 20 66 49 77 66 33 46 62 120 62 158 0 29 -3 34 -24 34 -41 0 -56
-11 -56 -40 0 -38 -26 -87 -72 -131 -44 -42 -120 -65 -181 -54 -86 16 -161 92
-175 177 -7 41 -9 43 -46 46 l-39 3 7 -53z"/>
<path d="M430 2650 c-66 -11 -158 -70 -228 -145 -106 -112 -143 -224 -124
-370 6 -44 14 -109 17 -145 6 -70 46 -205 70 -236 13 -17 14 -15 15 25 0 95
74 285 136 351 21 23 54 42 138 81 20 10 71 14 167 14 l138 -1 3 156 c2 126 0
158 -12 173 -27 33 -128 86 -186 96 -63 12 -69 12 -134 1z"/>
<path d="M4615 2640 c-68 -10 -141 -34 -199 -68 l-49 -29 -1 -167 -1 -168 54
6 c73 9 252 -20 317 -50 122 -57 197 -181 213 -349 6 -67 6 -69 22 -45 47 76
79 215 86 381 4 98 1 127 -16 186 -20 66 -61 142 -105 191 -27 31 -119 92
-138 92 -7 0 -18 4 -23 9 -14 12 -102 18 -160 11z"/>
<path d="M853 2603 c-4 -21 -8 -130 -8 -243 0 -179 2 -211 19 -255 27 -68 61
-121 105 -162 42 -41 152 -96 179 -91 19 3 19 6 -4 98 -35 139 -84 302 -104
345 -5 11 -21 47 -35 80 -41 95 -129 265 -137 265 -4 0 -11 -17 -15 -37z"/>
<path d="M4237 2603 c-9 -21 -33 -70 -54 -109 -21 -39 -46 -90 -57 -115 -10
-24 -24 -57 -32 -74 -12 -28 -32 -87 -67 -200 -8 -27 -25 -90 -37 -140 -12
-49 -24 -98 -26 -107 -4 -15 -1 -15 33 -6 118 32 212 119 259 238 29 74 29 76
29 285 0 261 -11 313 -48 228z"/>
<path d="M1284 2392 c-4 -24 -3 -47 2 -51 5 -4 68 -51 139 -104 72 -52 200
-148 285 -211 l155 -116 268 2 268 3 0 150 0 150 -93 8 c-164 14 -351 36 -433
52 -136 24 -333 71 -355 84 -9 5 -31 12 -50 16 -19 4 -39 10 -45 13 -5 4 -38
16 -72 27 l-62 21 -7 -44z"/>
<path d="M3818 2435 c-8 -8 -227 -82 -298 -100 -224 -59 -443 -93 -702 -110
l-108 -7 0 -154 0 -154 278 0 277 0 150 113 c83 61 182 135 220 164 39 28 93
68 120 90 28 21 61 45 74 53 21 14 22 20 16 63 -7 43 -14 55 -27 42z"/>
<path d="M2480 2060 l0 -150 75 0 75 0 0 150 0 150 -75 0 -75 0 0 -150z"/>
<path d="M475 2139 c-141 -34 -237 -248 -218 -481 6 -68 6 -68 70 -130 35 -35
88 -79 117 -98 67 -44 165 -94 171 -88 3 3 0 48 -7 102 -14 108 -3 205 32 283
26 59 123 154 182 179 27 10 48 23 48 27 0 5 -8 21 -19 35 -24 34 -61 117 -61
135 0 31 -30 39 -152 43 -68 2 -141 -1 -163 -7z"/>
<path d="M4363 2130 c-13 -5 -23 -16 -23 -25 0 -20 -37 -102 -61 -137 -25 -34
-24 -45 5 -52 44 -11 145 -87 181 -136 51 -69 74 -148 75 -248 0 -46 -4 -91
-9 -100 -4 -9 -11 -34 -15 -55 -7 -37 -6 -38 15 -32 55 18 194 111 264 177 70
67 78 78 85 123 12 74 -15 256 -47 323 -34 69 -95 122 -169 146 -67 21 -266
32 -301 16z"/>
<path d="M852 1835 c-79 -40 -114 -76 -147 -150 -40 -88 -40 -172 -4 -333 13
-58 14 -58 104 -85 83 -25 145 -32 145 -15 0 8 -4 18 -8 24 -16 17 -45 184
-39 222 20 120 62 229 108 278 26 28 24 40 -11 54 -16 7 -35 18 -41 26 -17 20
-29 18 -107 -21z"/>
<path d="M4171 1857 c-6 -8 -35 -26 -66 -42 l-55 -28 22 -31 c33 -44 63 -111
83 -180 21 -71 16 -227 -9 -291 -22 -57 -20 -69 7 -60 12 3 49 12 82 20 74 16
160 41 173 49 45 28 66 311 28 391 -26 57 -82 112 -146 144 -72 37 -105 44
-119 28z"/>
<path d="M1570 1467 c0 -269 3 -366 12 -375 7 -7 38 -12 70 -12 l58 0 0 375 0
375 -70 0 -70 0 0 -363z"/>
<path d="M1790 1455 l0 -375 775 0 775 0 0 375 0 375 -775 0 -775 0 0 -375z"/>
<path d="M3420 1455 l0 -375 38 0 c21 0 43 5 50 12 9 9 12 106 12 375 l0 363
-50 0 -50 0 0 -375z"/>
<path d="M1094 1763 c-25 -25 -71 -97 -79 -123 -4 -14 -13 -31 -19 -39 -7 -9
-11 -58 -10 -130 0 -105 3 -122 30 -186 l29 -70 55 -7 c162 -20 213 -22 208
-7 -62 155 -73 205 -73 319 0 84 5 116 22 162 l22 57 -22 7 c-12 4 -50 13 -85
19 -53 10 -66 10 -78 -2z"/>
<path d="M3885 1750 c-11 -5 -37 -9 -59 -9 -32 -1 -37 -4 -31 -18 45 -105 51
-261 16 -403 -12 -47 -25 -92 -31 -101 -5 -9 -6 -20 -3 -23 10 -10 102 -7 185
6 l77 11 20 48 c64 147 38 358 -57 470 -18 23 -32 29 -60 28 -21 0 -46 -4 -57
-9z"/>
<path d="M1351 1704 c-62 -104 -51 -302 27 -477 16 -37 17 -38 67 -35 l50 3 3
273 2 272 -64 0 c-63 0 -64 -1 -85 -36z"/>
<path d="M3592 1468 l3 -273 50 0 c49 0 50 0 63 40 14 42 16 47 31 110 31 123
21 295 -21 363 -18 30 -23 32 -74 32 l-54 0 2 -272z"/>
<path d="M1860 985 c0 -11 5 -38 11 -60 13 -48 31 -126 58 -253 12 -52 24 -99
28 -105 4 -7 13 14 20 48 7 33 22 101 33 150 12 50 26 113 32 140 6 28 15 56
21 63 7 9 116 12 483 12 l474 0 14 -22 c8 -13 17 -39 21 -58 4 -19 11 -41 16
-50 4 -8 17 -49 29 -90 19 -65 38 -128 57 -180 7 -19 18 15 44 135 23 108 44
196 57 247 l10 38 -704 2 c-698 3 -704 3 -704 -17z"/>
<path d="M2122 898 c-7 -7 -12 -22 -12 -35 l0 -23 440 0 440 0 0 23 c0 13 -5
28 -12 35 -17 17 -839 17 -856 0z"/>
<path d="M2089 765 c0 0 -2 -7 -4 -15 -2 -8 -6 -23 -10 -32 -7 -17 20 -18 474
-18 l481 0 0 24 c0 14 -4 27 -9 31 -7 4 -560 10 -932 10z"/>
<path d="M2052 613 c-6 -10 -13 -37 -17 -60 l-7 -43 537 0 c426 0 536 3 532
13 -2 6 -10 30 -18 52 -8 22 -18 43 -24 47 -5 4 -231 8 -502 8 -459 0 -493 -1
-501 -17z"/>
</g>
</svg>
